<?xml version="1.0"?>
<svg xmlns="http://www.w3.org/2000/svg" xmlns:xlink="http://www.w3.org/1999/xlink" version="1.1" width="432px" height="432px" viewBox="0 0 432 432"><defs><rect id="block" width="10.0606060606" height="10.0606060606" fill="#000000" fill-opacity="1"/></defs><rect x="0" y="0" width="432" height="432" fill="#ffffff" fill-opacity="1"/><use x="50.0000000000" y="50.0000000000" xlink:href="#block"/><use x="60.0606060606" y="50.0000000000" xlink:href="#block"/><use x="70.1212121212" y="50.0000000000" xlink:href="#block"/><use x="80.1818181818" y="50.0000000000" xlink:href="#block"/><use x="90.2424242424" y="50.0000000000" xlink:href="#block"/><use x="100.3030303030" y="50.0000000000" xlink:href="#block"/><use x="110.3636363636" y="50.0000000000" xlink:href="#block"/><use x="130.4848484848" y="50.0000000000" xlink:href="#block"/><use x="140.5454545455" y="50.0000000000" xlink:href="#block"/><use x="160.6666666667" y="50.0000000000" xlink:href="#block"/><use x="170.7272727273" y="50.0000000000" xlink:href="#block"/><use x="200.9090909091" y="50.0000000000" xlink:href="#block"/><use x="221.0303030303" y="50.0000000000" xlink:href="#block"/><use x="231.0909090909" y="50.0000000000" xlink:href="#block"/><use x="241.1515151515" y="50.0000000000" xlink:href="#block"/><use x="261.2727272727" y="50.0000000000" xlink:href="#block"/><use x="271.3333333333" y="50.0000000000" xlink:href="#block"/><use x="281.3939393939" y="50.0000000000" xlink:href="#block"/><use x="291.4545454545" y="50.0000000000" xlink:href="#block"/><use x="311.5757575758" y="50.0000000000" xlink:href="#block"/><use x="321.6363636364" y="50.0000000000" xlink:href="#block"/><use x="331.6969696970" y="50.0000000000" xlink:href="#block"/><use x="341.7575757576" y="50.0000000000" xlink:href="#block"/><use x="351.8181818182" y="50.0000000000" xlink:href="#block"/><use x="361.8787878788" y="50.0000000000" xlink:href="#block"/><use x="371.9393939394" y="50.0000000000" xlink:href="#block"/><use x="50.0000000000" y="60.0606060606" xlink:href="#block"/><use x="110.3636363636" y="60.0606060606" xlink:href="#block"/><use x="130.4848484848" y="60.0606060606" xlink:href="#block"/><use x="140.5454545455" y="60.0606060606" xlink:href="#block"/><use x="160.6666666667" y="60.0606060606" xlink:href="#block"/><use x="170.7272727273" y="60.0606060606" xlink:href="#block"/><use x="190.8484848485" y="60.0606060606" xlink:href="#block"/><use x="210.9696969697" y="60.0606060606" xlink:href="#block"/><use x="251.2121212121" y="60.0606060606" xlink:href="#block"/><use x="311.5757575758" y="60.0606060606" xlink:href="#block"/><use x="371.9393939394" y="60.0606060606" xlink:href="#block"/><use x="50.0000000000" y="70.1212121212" xlink:href="#block"/><use x="70.1212121212" y="70.1212121212" xlink:href="#block"/><use x="80.1818181818" y="70.1212121212" xlink:href="#block"/><use x="90.2424242424" y="70.1212121212" xlink:href="#block"/><use x="110.3636363636" y="70.1212121212" xlink:href="#block"/><use x="130.4848484848" y="70.1212121212" xlink:href="#block"/><use x="140.5454545455" y="70.1212121212" xlink:href="#block"/><use x="150.6060606061" y="70.1212121212" xlink:href="#block"/><use x="190.8484848485" y="70.1212121212" xlink:href="#block"/><use x="200.9090909091" y="70.1212121212" xlink:href="#block"/><use x="221.0303030303" y="70.1212121212" xlink:href="#block"/><use x="241.1515151515" y="70.1212121212" xlink:href="#block"/><use x="251.2121212121" y="70.1212121212" xlink:href="#block"/><use x="281.3939393939" y="70.1212121212" xlink:href="#block"/><use x="311.5757575758" y="70.1212121212" xlink:href="#block"/><use x="331.6969696970" y="70.1212121212" xlink:href="#block"/><use x="341.7575757576" y="70.1212121212" xlink:href="#block"/><use x="351.8181818182" y="70.1212121212" xlink:href="#block"/><use x="371.9393939394" y="70.1212121212" xlink:href="#block"/><use x="50.0000000000" y="80.1818181818" xlink:href="#block"/><use x="70.1212121212" y="80.1818181818" xlink:href="#block"/><use x="80.1818181818" y="80.1818181818" xlink:href="#block"/><use x="90.2424242424" y="80.1818181818" xlink:href="#block"/><use x="110.3636363636" y="80.1818181818" xlink:href="#block"/><use x="150.6060606061" y="80.1818181818" xlink:href="#block"/><use x="160.6666666667" y="80.1818181818" xlink:href="#block"/><use x="170.7272727273" y="80.1818181818" xlink:href="#block"/><use x="190.8484848485" y="80.1818181818" xlink:href="#block"/><use x="221.0303030303" y="80.1818181818" xlink:href="#block"/><use x="231.0909090909" y="80.1818181818" xlink:href="#block"/><use x="261.2727272727" y="80.1818181818" xlink:href="#block"/><use x="271.3333333333" y="80.1818181818" xlink:href="#block"/><use x="311.5757575758" y="80.1818181818" xlink:href="#block"/><use x="331.6969696970" y="80.1818181818" xlink:href="#block"/><use x="341.7575757576" y="80.1818181818" xlink:href="#block"/><use x="351.8181818182" y="80.1818181818" xlink:href="#block"/><use x="371.9393939394" y="80.1818181818" xlink:href="#block"/><use x="50.0000000000" y="90.2424242424" xlink:href="#block"/><use x="70.1212121212" y="90.2424242424" xlink:href="#block"/><use x="80.1818181818" y="90.2424242424" xlink:href="#block"/><use x="90.2424242424" y="90.2424242424" xlink:href="#block"/><use x="110.3636363636" y="90.2424242424" xlink:href="#block"/><use x="140.5454545455" y="90.2424242424" xlink:href="#block"/><use x="150.6060606061" y="90.2424242424" xlink:href="#block"/><use x="160.6666666667" y="90.2424242424" xlink:href="#block"/><use x="170.7272727273" y="90.2424242424" xlink:href="#block"/><use x="180.7878787879" y="90.2424242424" xlink:href="#block"/><use x="210.9696969697" y="90.2424242424" xlink:href="#block"/><use x="221.0303030303" y="90.2424242424" xlink:href="#block"/><use x="241.1515151515" y="90.2424242424" xlink:href="#block"/><use x="261.2727272727" y="90.2424242424" xlink:href="#block"/><use x="271.3333333333" y="90.2424242424" xlink:href="#block"/><use x="291.4545454545" y="90.2424242424" xlink:href="#block"/><use x="311.5757575758" y="90.2424242424" xlink:href="#block"/><use x="331.6969696970" y="90.2424242424" xlink:href="#block"/><use x="341.7575757576" y="90.2424242424" xlink:href="#block"/><use x="351.8181818182" y="90.2424242424" xlink:href="#block"/><use x="371.9393939394" y="90.2424242424" xlink:href="#block"/><use x="50.0000000000" y="100.3030303030" xlink:href="#block"/><use x="110.3636363636" y="100.3030303030" xlink:href="#block"/><use x="130.4848484848" y="100.3030303030" xlink:href="#block"/><use x="170.7272727273" y="100.3030303030" xlink:href="#block"/><use x="190.8484848485" y="100.3030303030" xlink:href="#block"/><use x="210.9696969697" y="100.3030303030" xlink:href="#block"/><use x="221.0303030303" y="100.3030303030" xlink:href="#block"/><use x="241.1515151515" y="100.3030303030" xlink:href="#block"/><use x="271.3333333333" y="100.3030303030" xlink:href="#block"/><use x="311.5757575758" y="100.3030303030" xlink:href="#block"/><use x="371.9393939394" y="100.3030303030" xlink:href="#block"/><use x="50.0000000000" y="110.3636363636" xlink:href="#block"/><use x="60.0606060606" y="110.3636363636" xlink:href="#block"/><use x="70.1212121212" y="110.3636363636" xlink:href="#block"/><use x="80.1818181818" y="110.3636363636" xlink:href="#block"/><use x="90.2424242424" y="110.3636363636" xlink:href="#block"/><use x="100.3030303030" y="110.3636363636" xlink:href="#block"/><use x="110.3636363636" y="110.3636363636" xlink:href="#block"/><use x="130.4848484848" y="110.3636363636" xlink:href="#block"/><use x="150.6060606061" y="110.3636363636" xlink:href="#block"/><use x="170.7272727273" y="110.3636363636" xlink:href="#block"/><use x="190.8484848485" y="110.3636363636" xlink:href="#block"/><use x="210.9696969697" y="110.3636363636" xlink:href="#block"/><use x="231.0909090909" y="110.3636363636" xlink:href="#block"/><use x="251.2121212121" y="110.3636363636" xlink:href="#block"/><use x="271.3333333333" y="110.3636363636" xlink:href="#block"/><use x="291.4545454545" y="110.3636363636" xlink:href="#block"/><use x="311.5757575758" y="110.3636363636" xlink:href="#block"/><use x="321.6363636364" y="110.3636363636" xlink:href="#block"/><use x="331.6969696970" y="110.3636363636" xlink:href="#block"/><use x="341.7575757576" y="110.3636363636" xlink:href="#block"/><use x="351.8181818182" y="110.3636363636" xlink:href="#block"/><use x="361.8787878788" y="110.3636363636" xlink:href="#block"/><use x="371.9393939394" y="110.3636363636" xlink:href="#block"/><use x="130.4848484848" y="120.4242424242" xlink:href="#block"/><use x="140.5454545455" y="120.4242424242" xlink:href="#block"/><use x="160.6666666667" y="120.4242424242" xlink:href="#block"/><use x="190.8484848485" y="120.4242424242" xlink:href="#block"/><use x="200.9090909091" y="120.4242424242" xlink:href="#block"/><use x="221.0303030303" y="120.4242424242" xlink:href="#block"/><use x="261.2727272727" y="120.4242424242" xlink:href="#block"/><use x="271.3333333333" y="120.4242424242" xlink:href="#block"/><use x="291.4545454545" y="120.4242424242" xlink:href="#block"/><use x="70.1212121212" y="130.4848484848" xlink:href="#block"/><use x="80.1818181818" y="130.4848484848" xlink:href="#block"/><use x="90.2424242424" y="130.4848484848" xlink:href="#block"/><use x="110.3636363636" y="130.4848484848" xlink:href="#block"/><use x="130.4848484848" y="130.4848484848" xlink:href="#block"/><use x="190.8484848485" y="130.4848484848" xlink:href="#block"/><use x="261.2727272727" y="130.4848484848" xlink:href="#block"/><use x="271.3333333333" y="130.4848484848" xlink:href="#block"/><use x="291.4545454545" y="130.4848484848" xlink:href="#block"/><use x="301.5151515152" y="130.4848484848" xlink:href="#block"/><use x="311.5757575758" y="130.4848484848" xlink:href="#block"/><use x="321.6363636364" y="130.4848484848" xlink:href="#block"/><use x="351.8181818182" y="130.4848484848" xlink:href="#block"/><use x="361.8787878788" y="130.4848484848" xlink:href="#block"/><use x="371.9393939394" y="130.4848484848" xlink:href="#block"/><use x="50.0000000000" y="140.5454545455" xlink:href="#block"/><use x="70.1212121212" y="140.5454545455" xlink:href="#block"/><use x="90.2424242424" y="140.5454545455" xlink:href="#block"/><use x="120.4242424242" y="140.5454545455" xlink:href="#block"/><use x="130.4848484848" y="140.5454545455" xlink:href="#block"/><use x="160.6666666667" y="140.5454545455" xlink:href="#block"/><use x="170.7272727273" y="140.5454545455" xlink:href="#block"/><use x="180.7878787879" y="140.5454545455" xlink:href="#block"/><use x="190.8484848485" y="140.5454545455" xlink:href="#block"/><use x="200.9090909091" y="140.5454545455" xlink:href="#block"/><use x="210.9696969697" y="140.5454545455" xlink:href="#block"/><use x="221.0303030303" y="140.5454545455" xlink:href="#block"/><use x="231.0909090909" y="140.5454545455" xlink:href="#block"/><use x="271.3333333333" y="140.5454545455" xlink:href="#block"/><use x="281.3939393939" y="140.5454545455" xlink:href="#block"/><use x="291.4545454545" y="140.5454545455" xlink:href="#block"/><use x="341.7575757576" y="140.5454545455" xlink:href="#block"/><use x="351.8181818182" y="140.5454545455" xlink:href="#block"/><use x="361.8787878788" y="140.5454545455" xlink:href="#block"/><use x="371.9393939394" y="140.5454545455" xlink:href="#block"/><use x="100.3030303030" y="150.6060606061" xlink:href="#block"/><use x="110.3636363636" y="150.6060606061" xlink:href="#block"/><use x="120.4242424242" y="150.6060606061" xlink:href="#block"/><use x="130.4848484848" y="150.6060606061" xlink:href="#block"/><use x="140.5454545455" y="150.6060606061" xlink:href="#block"/><use x="150.6060606061" y="150.6060606061" xlink:href="#block"/><use x="160.6666666667" y="150.6060606061" xlink:href="#block"/><use x="170.7272727273" y="150.6060606061" xlink:href="#block"/><use x="190.8484848485" y="150.6060606061" xlink:href="#block"/><use x="241.1515151515" y="150.6060606061" xlink:href="#block"/><use x="271.3333333333" y="150.6060606061" xlink:href="#block"/><use x="301.5151515152" y="150.6060606061" xlink:href="#block"/><use x="331.6969696970" y="150.6060606061" xlink:href="#block"/><use x="341.7575757576" y="150.6060606061" xlink:href="#block"/><use x="361.8787878788" y="150.6060606061" xlink:href="#block"/><use x="371.9393939394" y="150.6060606061" xlink:href="#block"/><use x="80.1818181818" y="160.6666666667" xlink:href="#block"/><use x="130.4848484848" y="160.6666666667" xlink:href="#block"/><use x="140.5454545455" y="160.6666666667" xlink:href="#block"/><use x="150.6060606061" y="160.6666666667" xlink:href="#block"/><use x="160.6666666667" y="160.6666666667" xlink:href="#block"/><use x="170.7272727273" y="160.6666666667" xlink:href="#block"/><use x="190.8484848485" y="160.6666666667" xlink:href="#block"/><use x="221.0303030303" y="160.6666666667" xlink:href="#block"/><use x="231.0909090909" y="160.6666666667" xlink:href="#block"/><use x="251.2121212121" y="160.6666666667" xlink:href="#block"/><use x="281.3939393939" y="160.6666666667" xlink:href="#block"/><use x="301.5151515152" y="160.6666666667" xlink:href="#block"/><use x="311.5757575758" y="160.6666666667" xlink:href="#block"/><use x="351.8181818182" y="160.6666666667" xlink:href="#block"/><use x="371.9393939394" y="160.6666666667" xlink:href="#block"/><use x="50.0000000000" y="170.7272727273" xlink:href="#block"/><use x="90.2424242424" y="170.7272727273" xlink:href="#block"/><use x="110.3636363636" y="170.7272727273" xlink:href="#block"/><use x="120.4242424242" y="170.7272727273" xlink:href="#block"/><use x="130.4848484848" y="170.7272727273" xlink:href="#block"/><use x="150.6060606061" y="170.7272727273" xlink:href="#block"/><use x="180.7878787879" y="170.7272727273" xlink:href="#block"/><use x="190.8484848485" y="170.7272727273" xlink:href="#block"/><use x="210.9696969697" y="170.7272727273" xlink:href="#block"/><use x="221.0303030303" y="170.7272727273" xlink:href="#block"/><use x="231.0909090909" y="170.7272727273" xlink:href="#block"/><use x="241.1515151515" y="170.7272727273" xlink:href="#block"/><use x="251.2121212121" y="170.7272727273" xlink:href="#block"/><use x="261.2727272727" y="170.7272727273" xlink:href="#block"/><use x="271.3333333333" y="170.7272727273" xlink:href="#block"/><use x="291.4545454545" y="170.7272727273" xlink:href="#block"/><use x="301.5151515152" y="170.7272727273" xlink:href="#block"/><use x="321.6363636364" y="170.7272727273" xlink:href="#block"/><use x="351.8181818182" y="170.7272727273" xlink:href="#block"/><use x="80.1818181818" y="180.7878787879" xlink:href="#block"/><use x="100.3030303030" y="180.7878787879" xlink:href="#block"/><use x="120.4242424242" y="180.7878787879" xlink:href="#block"/><use x="130.4848484848" y="180.7878787879" xlink:href="#block"/><use x="140.5454545455" y="180.7878787879" xlink:href="#block"/><use x="150.6060606061" y="180.7878787879" xlink:href="#block"/><use x="160.6666666667" y="180.7878787879" xlink:href="#block"/><use x="190.8484848485" y="180.7878787879" xlink:href="#block"/><use x="231.0909090909" y="180.7878787879" xlink:href="#block"/><use x="241.1515151515" y="180.7878787879" xlink:href="#block"/><use x="261.2727272727" y="180.7878787879" xlink:href="#block"/><use x="281.3939393939" y="180.7878787879" xlink:href="#block"/><use x="291.4545454545" y="180.7878787879" xlink:href="#block"/><use x="331.6969696970" y="180.7878787879" xlink:href="#block"/><use x="341.7575757576" y="180.7878787879" xlink:href="#block"/><use x="60.0606060606" y="190.8484848485" xlink:href="#block"/><use x="100.3030303030" y="190.8484848485" xlink:href="#block"/><use x="110.3636363636" y="190.8484848485" xlink:href="#block"/><use x="130.4848484848" y="190.8484848485" xlink:href="#block"/><use x="150.6060606061" y="190.8484848485" xlink:href="#block"/><use x="160.6666666667" y="190.8484848485" xlink:href="#block"/><use x="190.8484848485" y="190.8484848485" xlink:href="#block"/><use x="200.9090909091" y="190.8484848485" xlink:href="#block"/><use x="231.0909090909" y="190.8484848485" xlink:href="#block"/><use x="301.5151515152" y="190.8484848485" xlink:href="#block"/><use x="321.6363636364" y="190.8484848485" xlink:href="#block"/><use x="331.6969696970" y="190.8484848485" xlink:href="#block"/><use x="361.8787878788" y="190.8484848485" xlink:href="#block"/><use x="60.0606060606" y="200.9090909091" xlink:href="#block"/><use x="70.1212121212" y="200.9090909091" xlink:href="#block"/><use x="120.4242424242" y="200.9090909091" xlink:href="#block"/><use x="130.4848484848" y="200.9090909091" xlink:href="#block"/><use x="160.6666666667" y="200.9090909091" xlink:href="#block"/><use x="170.7272727273" y="200.9090909091" xlink:href="#block"/><use x="180.7878787879" y="200.9090909091" xlink:href="#block"/><use x="200.9090909091" y="200.9090909091" xlink:href="#block"/><use x="231.0909090909" y="200.9090909091" xlink:href="#block"/><use x="241.1515151515" y="200.9090909091" xlink:href="#block"/><use x="251.2121212121" y="200.9090909091" xlink:href="#block"/><use x="271.3333333333" y="200.9090909091" xlink:href="#block"/><use x="281.3939393939" y="200.9090909091" xlink:href="#block"/><use x="311.5757575758" y="200.9090909091" xlink:href="#block"/><use x="331.6969696970" y="200.9090909091" xlink:href="#block"/><use x="341.7575757576" y="200.9090909091" xlink:href="#block"/><use x="371.9393939394" y="200.9090909091" xlink:href="#block"/><use x="50.0000000000" y="210.9696969697" xlink:href="#block"/><use x="70.1212121212" y="210.9696969697" xlink:href="#block"/><use x="90.2424242424" y="210.9696969697" xlink:href="#block"/><use x="100.3030303030" y="210.9696969697" xlink:href="#block"/><use x="110.3636363636" y="210.9696969697" xlink:href="#block"/><use x="120.4242424242" y="210.9696969697" xlink:href="#block"/><use x="130.4848484848" y="210.9696969697" xlink:href="#block"/><use x="150.6060606061" y="210.9696969697" xlink:href="#block"/><use x="160.6666666667" y="210.9696969697" xlink:href="#block"/><use x="180.7878787879" y="210.9696969697" xlink:href="#block"/><use x="190.8484848485" y="210.9696969697" xlink:href="#block"/><use x="200.9090909091" y="210.9696969697" xlink:href="#block"/><use x="210.9696969697" y="210.9696969697" xlink:href="#block"/><use x="221.0303030303" y="210.9696969697" xlink:href="#block"/><use x="231.0909090909" y="210.9696969697" xlink:href="#block"/><use x="251.2121212121" y="210.9696969697" xlink:href="#block"/><use x="291.4545454545" y="210.9696969697" xlink:href="#block"/><use x="351.8181818182" y="210.9696969697" xlink:href="#block"/><use x="371.9393939394" y="210.9696969697" xlink:href="#block"/><use x="50.0000000000" y="221.0303030303" xlink:href="#block"/><use x="60.0606060606" y="221.0303030303" xlink:href="#block"/><use x="90.2424242424" y="221.0303030303" xlink:href="#block"/><use x="100.3030303030" y="221.0303030303" xlink:href="#block"/><use x="150.6060606061" y="221.0303030303" xlink:href="#block"/><use x="170.7272727273" y="221.0303030303" xlink:href="#block"/><use x="180.7878787879" y="221.0303030303" xlink:href="#block"/><use x="190.8484848485" y="221.0303030303" xlink:href="#block"/><use x="261.2727272727" y="221.0303030303" xlink:href="#block"/><use x="291.4545454545" y="221.0303030303" xlink:href="#block"/><use x="301.5151515152" y="221.0303030303" xlink:href="#block"/><use x="311.5757575758" y="221.0303030303" xlink:href="#block"/><use x="321.6363636364" y="221.0303030303" xlink:href="#block"/><use x="331.6969696970" y="221.0303030303" xlink:href="#block"/><use x="351.8181818182" y="221.0303030303" xlink:href="#block"/><use x="50.0000000000" y="231.0909090909" xlink:href="#block"/><use x="60.0606060606" y="231.0909090909" xlink:href="#block"/><use x="70.1212121212" y="231.0909090909" xlink:href="#block"/><use x="100.3030303030" y="231.0909090909" xlink:href="#block"/><use x="110.3636363636" y="231.0909090909" xlink:href="#block"/><use x="120.4242424242" y="231.0909090909" xlink:href="#block"/><use x="140.5454545455" y="231.0909090909" xlink:href="#block"/><use x="160.6666666667" y="231.0909090909" xlink:href="#block"/><use x="180.7878787879" y="231.0909090909" xlink:href="#block"/><use x="210.9696969697" y="231.0909090909" xlink:href="#block"/><use x="241.1515151515" y="231.0909090909" xlink:href="#block"/><use x="271.3333333333" y="231.0909090909" xlink:href="#block"/><use x="321.6363636364" y="231.0909090909" xlink:href="#block"/><use x="331.6969696970" y="231.0909090909" xlink:href="#block"/><use x="341.7575757576" y="231.0909090909" xlink:href="#block"/><use x="351.8181818182" y="231.0909090909" xlink:href="#block"/><use x="50.0000000000" y="241.1515151515" xlink:href="#block"/><use x="70.1212121212" y="241.1515151515" xlink:href="#block"/><use x="80.1818181818" y="241.1515151515" xlink:href="#block"/><use x="90.2424242424" y="241.1515151515" xlink:href="#block"/><use x="150.6060606061" y="241.1515151515" xlink:href="#block"/><use x="190.8484848485" y="241.1515151515" xlink:href="#block"/><use x="200.9090909091" y="241.1515151515" xlink:href="#block"/><use x="210.9696969697" y="241.1515151515" xlink:href="#block"/><use x="231.0909090909" y="241.1515151515" xlink:href="#block"/><use x="241.1515151515" y="241.1515151515" xlink:href="#block"/><use x="251.2121212121" y="241.1515151515" xlink:href="#block"/><use x="261.2727272727" y="241.1515151515" xlink:href="#block"/><use x="271.3333333333" y="241.1515151515" xlink:href="#block"/><use x="281.3939393939" y="241.1515151515" xlink:href="#block"/><use x="301.5151515152" y="241.1515151515" xlink:href="#block"/><use x="60.0606060606" y="251.2121212121" xlink:href="#block"/><use x="70.1212121212" y="251.2121212121" xlink:href="#block"/><use x="80.1818181818" y="251.2121212121" xlink:href="#block"/><use x="110.3636363636" y="251.2121212121" xlink:href="#block"/><use x="120.4242424242" y="251.2121212121" xlink:href="#block"/><use x="150.6060606061" y="251.2121212121" xlink:href="#block"/><use x="160.6666666667" y="251.2121212121" xlink:href="#block"/><use x="180.7878787879" y="251.2121212121" xlink:href="#block"/><use x="190.8484848485" y="251.2121212121" xlink:href="#block"/><use x="210.9696969697" y="251.2121212121" xlink:href="#block"/><use x="231.0909090909" y="251.2121212121" xlink:href="#block"/><use x="251.2121212121" y="251.2121212121" xlink:href="#block"/><use x="291.4545454545" y="251.2121212121" xlink:href="#block"/><use x="351.8181818182" y="251.2121212121" xlink:href="#block"/><use x="50.0000000000" y="261.2727272727" xlink:href="#block"/><use x="60.0606060606" y="261.2727272727" xlink:href="#block"/><use x="150.6060606061" y="261.2727272727" xlink:href="#block"/><use x="160.6666666667" y="261.2727272727" xlink:href="#block"/><use x="170.7272727273" y="261.2727272727" xlink:href="#block"/><use x="200.9090909091" y="261.2727272727" xlink:href="#block"/><use x="241.1515151515" y="261.2727272727" xlink:href="#block"/><use x="251.2121212121" y="261.2727272727" xlink:href="#block"/><use x="261.2727272727" y="261.2727272727" xlink:href="#block"/><use x="271.3333333333" y="261.2727272727" xlink:href="#block"/><use x="301.5151515152" y="261.2727272727" xlink:href="#block"/><use x="321.6363636364" y="261.2727272727" xlink:href="#block"/><use x="341.7575757576" y="261.2727272727" xlink:href="#block"/><use x="351.8181818182" y="261.2727272727" xlink:href="#block"/><use x="361.8787878788" y="261.2727272727" xlink:href="#block"/><use x="50.0000000000" y="271.3333333333" xlink:href="#block"/><use x="80.1818181818" y="271.3333333333" xlink:href="#block"/><use x="90.2424242424" y="271.3333333333" xlink:href="#block"/><use x="110.3636363636" y="271.3333333333" xlink:href="#block"/><use x="160.6666666667" y="271.3333333333" xlink:href="#block"/><use x="170.7272727273" y="271.3333333333" xlink:href="#block"/><use x="200.9090909091" y="271.3333333333" xlink:href="#block"/><use x="210.9696969697" y="271.3333333333" xlink:href="#block"/><use x="231.0909090909" y="271.3333333333" xlink:href="#block"/><use x="241.1515151515" y="271.3333333333" xlink:href="#block"/><use x="281.3939393939" y="271.3333333333" xlink:href="#block"/><use x="291.4545454545" y="271.3333333333" xlink:href="#block"/><use x="301.5151515152" y="271.3333333333" xlink:href="#block"/><use x="321.6363636364" y="271.3333333333" xlink:href="#block"/><use x="331.6969696970" y="271.3333333333" xlink:href="#block"/><use x="341.7575757576" y="271.3333333333" xlink:href="#block"/><use x="361.8787878788" y="271.3333333333" xlink:href="#block"/><use x="50.0000000000" y="281.3939393939" xlink:href="#block"/><use x="70.1212121212" y="281.3939393939" xlink:href="#block"/><use x="80.1818181818" y="281.3939393939" xlink:href="#block"/><use x="90.2424242424" y="281.3939393939" xlink:href="#block"/><use x="150.6060606061" y="281.3939393939" xlink:href="#block"/><use x="160.6666666667" y="281.3939393939" xlink:href="#block"/><use x="180.7878787879" y="281.3939393939" xlink:href="#block"/><use x="210.9696969697" y="281.3939393939" xlink:href="#block"/><use x="231.0909090909" y="281.3939393939" xlink:href="#block"/><use x="251.2121212121" y="281.3939393939" xlink:href="#block"/><use x="281.3939393939" y="281.3939393939" xlink:href="#block"/><use x="301.5151515152" y="281.3939393939" xlink:href="#block"/><use x="311.5757575758" y="281.3939393939" xlink:href="#block"/><use x="341.7575757576" y="281.3939393939" xlink:href="#block"/><use x="351.8181818182" y="281.3939393939" xlink:href="#block"/><use x="371.9393939394" y="281.3939393939" xlink:href="#block"/><use x="50.0000000000" y="291.4545454545" xlink:href="#block"/><use x="70.1212121212" y="291.4545454545" xlink:href="#block"/><use x="80.1818181818" y="291.4545454545" xlink:href="#block"/><use x="100.3030303030" y="291.4545454545" xlink:href="#block"/><use x="110.3636363636" y="291.4545454545" xlink:href="#block"/><use x="120.4242424242" y="291.4545454545" xlink:href="#block"/><use x="130.4848484848" y="291.4545454545" xlink:href="#block"/><use x="150.6060606061" y="291.4545454545" xlink:href="#block"/><use x="170.7272727273" y="291.4545454545" xlink:href="#block"/><use x="180.7878787879" y="291.4545454545" xlink:href="#block"/><use x="231.0909090909" y="291.4545454545" xlink:href="#block"/><use x="241.1515151515" y="291.4545454545" xlink:href="#block"/><use x="271.3333333333" y="291.4545454545" xlink:href="#block"/><use x="281.3939393939" y="291.4545454545" xlink:href="#block"/><use x="291.4545454545" y="291.4545454545" xlink:href="#block"/><use x="301.5151515152" y="291.4545454545" xlink:href="#block"/><use x="311.5757575758" y="291.4545454545" xlink:href="#block"/><use x="321.6363636364" y="291.4545454545" xlink:href="#block"/><use x="331.6969696970" y="291.4545454545" xlink:href="#block"/><use x="351.8181818182" y="291.4545454545" xlink:href="#block"/><use x="361.8787878788" y="291.4545454545" xlink:href="#block"/><use x="130.4848484848" y="301.5151515152" xlink:href="#block"/><use x="150.6060606061" y="301.5151515152" xlink:href="#block"/><use x="180.7878787879" y="301.5151515152" xlink:href="#block"/><use x="200.9090909091" y="301.5151515152" xlink:href="#block"/><use x="210.9696969697" y="301.5151515152" xlink:href="#block"/><use x="221.0303030303" y="301.5151515152" xlink:href="#block"/><use x="231.0909090909" y="301.5151515152" xlink:href="#block"/><use x="241.1515151515" y="301.5151515152" xlink:href="#block"/><use x="251.2121212121" y="301.5151515152" xlink:href="#block"/><use x="261.2727272727" y="301.5151515152" xlink:href="#block"/><use x="271.3333333333" y="301.5151515152" xlink:href="#block"/><use x="291.4545454545" y="301.5151515152" xlink:href="#block"/><use x="331.6969696970" y="301.5151515152" xlink:href="#block"/><use x="341.7575757576" y="301.5151515152" xlink:href="#block"/><use x="351.8181818182" y="301.5151515152" xlink:href="#block"/><use x="361.8787878788" y="301.5151515152" xlink:href="#block"/><use x="371.9393939394" y="301.5151515152" xlink:href="#block"/><use x="50.0000000000" y="311.5757575758" xlink:href="#block"/><use x="60.0606060606" y="311.5757575758" xlink:href="#block"/><use x="70.1212121212" y="311.5757575758" xlink:href="#block"/><use x="80.1818181818" y="311.5757575758" xlink:href="#block"/><use x="90.2424242424" y="311.5757575758" xlink:href="#block"/><use x="100.3030303030" y="311.5757575758" xlink:href="#block"/><use x="110.3636363636" y="311.5757575758" xlink:href="#block"/><use x="140.5454545455" y="311.5757575758" xlink:href="#block"/><use x="150.6060606061" y="311.5757575758" xlink:href="#block"/><use x="160.6666666667" y="311.5757575758" xlink:href="#block"/><use x="200.9090909091" y="311.5757575758" xlink:href="#block"/><use x="210.9696969697" y="311.5757575758" xlink:href="#block"/><use x="221.0303030303" y="311.5757575758" xlink:href="#block"/><use x="231.0909090909" y="311.5757575758" xlink:href="#block"/><use x="241.1515151515" y="311.5757575758" xlink:href="#block"/><use x="251.2121212121" y="311.5757575758" xlink:href="#block"/><use x="261.2727272727" y="311.5757575758" xlink:href="#block"/><use x="281.3939393939" y="311.5757575758" xlink:href="#block"/><use x="291.4545454545" y="311.5757575758" xlink:href="#block"/><use x="311.5757575758" y="311.5757575758" xlink:href="#block"/><use x="331.6969696970" y="311.5757575758" xlink:href="#block"/><use x="341.7575757576" y="311.5757575758" xlink:href="#block"/><use x="361.8787878788" y="311.5757575758" xlink:href="#block"/><use x="371.9393939394" y="311.5757575758" xlink:href="#block"/><use x="50.0000000000" y="321.6363636364" xlink:href="#block"/><use x="110.3636363636" y="321.6363636364" xlink:href="#block"/><use x="150.6060606061" y="321.6363636364" xlink:href="#block"/><use x="170.7272727273" y="321.6363636364" xlink:href="#block"/><use x="210.9696969697" y="321.6363636364" xlink:href="#block"/><use x="221.0303030303" y="321.6363636364" xlink:href="#block"/><use x="241.1515151515" y="321.6363636364" xlink:href="#block"/><use x="251.2121212121" y="321.6363636364" xlink:href="#block"/><use x="261.2727272727" y="321.6363636364" xlink:href="#block"/><use x="271.3333333333" y="321.6363636364" xlink:href="#block"/><use x="281.3939393939" y="321.6363636364" xlink:href="#block"/><use x="291.4545454545" y="321.6363636364" xlink:href="#block"/><use x="331.6969696970" y="321.6363636364" xlink:href="#block"/><use x="341.7575757576" y="321.6363636364" xlink:href="#block"/><use x="351.8181818182" y="321.6363636364" xlink:href="#block"/><use x="371.9393939394" y="321.6363636364" xlink:href="#block"/><use x="50.0000000000" y="331.6969696970" xlink:href="#block"/><use x="70.1212121212" y="331.6969696970" xlink:href="#block"/><use x="80.1818181818" y="331.6969696970" xlink:href="#block"/><use x="90.2424242424" y="331.6969696970" xlink:href="#block"/><use x="110.3636363636" y="331.6969696970" xlink:href="#block"/><use x="130.4848484848" y="331.6969696970" xlink:href="#block"/><use x="150.6060606061" y="331.6969696970" xlink:href="#block"/><use x="160.6666666667" y="331.6969696970" xlink:href="#block"/><use x="190.8484848485" y="331.6969696970" xlink:href="#block"/><use x="210.9696969697" y="331.6969696970" xlink:href="#block"/><use x="221.0303030303" y="331.6969696970" xlink:href="#block"/><use x="231.0909090909" y="331.6969696970" xlink:href="#block"/><use x="261.2727272727" y="331.6969696970" xlink:href="#block"/><use x="281.3939393939" y="331.6969696970" xlink:href="#block"/><use x="291.4545454545" y="331.6969696970" xlink:href="#block"/><use x="301.5151515152" y="331.6969696970" xlink:href="#block"/><use x="311.5757575758" y="331.6969696970" xlink:href="#block"/><use x="321.6363636364" y="331.6969696970" xlink:href="#block"/><use x="331.6969696970" y="331.6969696970" xlink:href="#block"/><use x="351.8181818182" y="331.6969696970" xlink:href="#block"/><use x="50.0000000000" y="341.7575757576" xlink:href="#block"/><use x="70.1212121212" y="341.7575757576" xlink:href="#block"/><use x="80.1818181818" y="341.7575757576" xlink:href="#block"/><use x="90.2424242424" y="341.7575757576" xlink:href="#block"/><use x="110.3636363636" y="341.7575757576" xlink:href="#block"/><use x="130.4848484848" y="341.7575757576" xlink:href="#block"/><use x="140.5454545455" y="341.7575757576" xlink:href="#block"/><use x="150.6060606061" y="341.7575757576" xlink:href="#block"/><use x="160.6666666667" y="341.7575757576" xlink:href="#block"/><use x="170.7272727273" y="341.7575757576" xlink:href="#block"/><use x="190.8484848485" y="341.7575757576" xlink:href="#block"/><use x="231.0909090909" y="341.7575757576" xlink:href="#block"/><use x="251.2121212121" y="341.7575757576" xlink:href="#block"/><use x="261.2727272727" y="341.7575757576" xlink:href="#block"/><use x="271.3333333333" y="341.7575757576" xlink:href="#block"/><use x="301.5151515152" y="341.7575757576" xlink:href="#block"/><use x="321.6363636364" y="341.7575757576" xlink:href="#block"/><use x="351.8181818182" y="341.7575757576" xlink:href="#block"/><use x="361.8787878788" y="341.7575757576" xlink:href="#block"/><use x="50.0000000000" y="351.8181818182" xlink:href="#block"/><use x="70.1212121212" y="351.8181818182" xlink:href="#block"/><use x="80.1818181818" y="351.8181818182" xlink:href="#block"/><use x="90.2424242424" y="351.8181818182" xlink:href="#block"/><use x="110.3636363636" y="351.8181818182" xlink:href="#block"/><use x="130.4848484848" y="351.8181818182" xlink:href="#block"/><use x="150.6060606061" y="351.8181818182" xlink:href="#block"/><use x="160.6666666667" y="351.8181818182" xlink:href="#block"/><use x="170.7272727273" y="351.8181818182" xlink:href="#block"/><use x="190.8484848485" y="351.8181818182" xlink:href="#block"/><use x="200.9090909091" y="351.8181818182" xlink:href="#block"/><use x="210.9696969697" y="351.8181818182" xlink:href="#block"/><use x="251.2121212121" y="351.8181818182" xlink:href="#block"/><use x="271.3333333333" y="351.8181818182" xlink:href="#block"/><use x="291.4545454545" y="351.8181818182" xlink:href="#block"/><use x="321.6363636364" y="351.8181818182" xlink:href="#block"/><use x="331.6969696970" y="351.8181818182" xlink:href="#block"/><use x="341.7575757576" y="351.8181818182" xlink:href="#block"/><use x="351.8181818182" y="351.8181818182" xlink:href="#block"/><use x="50.0000000000" y="361.8787878788" xlink:href="#block"/><use x="110.3636363636" y="361.8787878788" xlink:href="#block"/><use x="150.6060606061" y="361.8787878788" xlink:href="#block"/><use x="170.7272727273" y="361.8787878788" xlink:href="#block"/><use x="221.0303030303" y="361.8787878788" xlink:href="#block"/><use x="231.0909090909" y="361.8787878788" xlink:href="#block"/><use x="241.1515151515" y="361.8787878788" xlink:href="#block"/><use x="251.2121212121" y="361.8787878788" xlink:href="#block"/><use x="261.2727272727" y="361.8787878788" xlink:href="#block"/><use x="281.3939393939" y="361.8787878788" xlink:href="#block"/><use x="291.4545454545" y="361.8787878788" xlink:href="#block"/><use x="301.5151515152" y="361.8787878788" xlink:href="#block"/><use x="321.6363636364" y="361.8787878788" xlink:href="#block"/><use x="331.6969696970" y="361.8787878788" xlink:href="#block"/><use x="351.8181818182" y="361.8787878788" xlink:href="#block"/><use x="361.8787878788" y="361.8787878788" xlink:href="#block"/><use x="371.9393939394" y="361.8787878788" xlink:href="#block"/><use x="50.0000000000" y="371.9393939394" xlink:href="#block"/><use x="60.0606060606" y="371.9393939394" xlink:href="#block"/><use x="70.1212121212" y="371.9393939394" xlink:href="#block"/><use x="80.1818181818" y="371.9393939394" xlink:href="#block"/><use x="90.2424242424" y="371.9393939394" xlink:href="#block"/><use x="100.3030303030" y="371.9393939394" xlink:href="#block"/><use x="110.3636363636" y="371.9393939394" xlink:href="#block"/><use x="150.6060606061" y="371.9393939394" xlink:href="#block"/><use x="170.7272727273" y="371.9393939394" xlink:href="#block"/><use x="190.8484848485" y="371.9393939394" xlink:href="#block"/><use x="200.9090909091" y="371.9393939394" xlink:href="#block"/><use x="210.9696969697" y="371.9393939394" xlink:href="#block"/><use x="221.0303030303" y="371.9393939394" xlink:href="#block"/><use x="241.1515151515" y="371.9393939394" xlink:href="#block"/><use x="261.2727272727" y="371.9393939394" xlink:href="#block"/><use x="271.3333333333" y="371.9393939394" xlink:href="#block"/><use x="291.4545454545" y="371.9393939394" xlink:href="#block"/><use x="311.5757575758" y="371.9393939394" xlink:href="#block"/><use x="341.7575757576" y="371.9393939394" xlink:href="#block"/><use x="351.8181818182" y="371.9393939394" xlink:href="#block"/><use x="361.8787878788" y="371.9393939394" xlink:href="#block"/></svg>
